<svg width="332" height="251" viewBox="0 0 332 251" fill="none" xmlns="http://www.w3.org/2000/svg">
<path d="M325 -2C350.404 22.5228 292.799 147.545 281.302 179.774C269.805 212.179 236.613 235.476 203.605 244.935C170.784 254.394 138.147 250.015 111.63 236.702C85.113 223.39 64.9007 201.319 48.7679 168.564C32.8206 135.809 -12.3017 27.9463 5.49998 5C23.3016 -17.9463 138.552 -19.6274 182.5 -17C226.262 -14.3725 299.781 -26.5228 325 -2Z" fill="#276E61"/>
<path d="M325 -2C350.404 22.5228 292.799 147.545 281.302 179.774C269.805 212.179 236.613 235.476 203.605 244.935C170.784 254.394 138.147 250.015 111.63 236.702C85.113 223.39 64.9007 201.319 48.7679 168.564C32.8206 135.809 -12.3017 27.9463 5.49998 5C23.3016 -17.9463 138.552 -19.6274 182.5 -17C226.262 -14.3725 299.781 -26.5228 325 -2Z" stroke="black"/>
</svg>
